<svg width="44" height="44" viewBox="0 0 44 44" fill="none" xmlns="http://www.w3.org/2000/svg">
<path d="M0 0H44V44H0V0Z" fill="url(#paint0_linear)"/>
<path fill-rule="evenodd" clip-rule="evenodd" d="M44 24.5204V43.9999H18.9999L10.5 32.5L16.5 27.5L28 25.5L33 11.5L44 24.5204Z" fill="url(#paint1_linear)"/>
<rect x="10" y="10.75" width="24" height="22.5" rx="3.5" fill="#0068FF"/>
<path fill-rule="evenodd" clip-rule="evenodd" d="M15.8962 33.608H15.8962H15.8963C16.356 33.6031 16.8155 33.5983 17.2745 33.5983L17.2729 33.588L17.2746 33.598C17.3792 33.598 17.4839 33.6033 17.5885 33.6137H25.1506C25.7785 33.6137 26.4065 33.6149 27.0345 33.616C28.2905 33.6184 29.5465 33.6207 30.8024 33.6137H30.8286C32.5765 33.598 33.979 32.1746 33.9685 30.4267V27.3653C33.9685 27.3462 33.9699 27.3227 33.9713 27.298C33.9757 27.2211 33.9807 27.1332 33.9476 27.135C33.8534 27.1403 33.7049 27.1739 33.6525 27.2262C33.2512 27.4938 32.8621 27.786 32.4729 28.0781L32.4728 28.0782C31.6944 28.6627 30.916 29.2471 30.0403 29.6344C26.6326 30.784 23.6187 30.8384 20.4197 30.0656C20.2447 30.002 20.1613 30.0091 20.0133 30.0218H20.0133H20.0133C19.918 30.0299 19.7959 30.0404 19.6051 30.0357L19.5794 30.0366L19.5327 30.0381C19.2171 30.0479 18.7589 30.0622 18.2113 30.3953C16.9292 30.7878 15.1902 30.8385 14.2916 30.7041C14.2954 30.7126 14.2978 30.7201 14.2997 30.727C14.2969 30.7212 14.2942 30.7154 14.2916 30.7095C14.2791 30.6954 14.2634 30.683 14.2481 30.671L14.2481 30.671C14.1993 30.6326 14.1556 30.5981 14.2393 30.5264C14.2637 30.5107 14.2881 30.4944 14.3125 30.4781L14.3125 30.4781C14.3614 30.4455 14.4102 30.413 14.4591 30.3851C15.1446 29.9402 15.7883 29.4535 16.2122 28.7366C16.7885 28.0379 16.5213 27.7654 16.0121 27.246L15.993 27.2264C13.5121 24.695 12.7821 22.0088 13.0409 18.3957C13.3496 16.4123 14.2602 14.7063 15.5737 13.2201C16.3692 12.32 17.3164 11.5925 18.3526 10.9855C18.3675 10.976 18.385 10.9682 18.4028 10.9603C18.4534 10.9378 18.5071 10.9139 18.5148 10.8442C18.5209 10.7891 18.4325 10.7709 18.4011 10.7709C17.8105 10.7709 17.2276 10.7656 16.6474 10.7604C15.4949 10.75 14.353 10.7396 13.1835 10.7709C11.5036 10.818 9.97264 11.975 10.0004 14.0365C10.0073 17.679 10.005 21.3192 10.0027 24.9586V24.9586V24.9586C10.0015 26.778 10.0004 28.5972 10.0004 30.4165C10.0004 32.1068 11.293 33.525 12.9833 33.593C13.9529 33.6285 14.925 33.6183 15.8962 33.608ZM14.3581 30.8239L14.3701 30.8403C14.4577 30.9181 14.5447 30.9966 14.6312 31.0757C14.5473 30.9954 14.4606 30.9152 14.3701 30.8349L14.3581 30.8239ZM17.0367 33.3376C17.0077 33.3184 16.9797 33.2979 16.9553 33.2736L16.9484 33.2721L16.9553 33.279C16.9797 33.3011 17.0077 33.3198 17.0367 33.3376ZM18.091 21.8868C18.3582 21.8868 18.62 21.8862 18.878 21.8856C19.3831 21.8845 19.8738 21.8833 20.3622 21.8868C20.7756 21.892 21.0006 22.0647 21.0425 22.3944C21.0896 22.8078 20.8489 23.0852 20.3988 23.0904C19.7631 23.0983 19.1304 23.0973 18.4962 23.0963C18.2846 23.096 18.0728 23.0957 17.8607 23.0957C17.7903 23.0957 17.7203 23.0965 17.6505 23.0974L17.6504 23.0974H17.6503C17.4764 23.0995 17.3035 23.1016 17.128 23.0904C16.8245 23.0747 16.5262 23.0119 16.3797 22.6979C16.2332 22.384 16.3378 22.1014 16.5367 21.8449C17.3426 20.8192 18.1538 19.7883 18.9649 18.7626C19.012 18.6998 19.0591 18.637 19.1062 18.5794C19.0676 18.5139 19.0177 18.5193 18.969 18.5247C18.9516 18.5266 18.9343 18.5285 18.9178 18.5271C18.6352 18.5245 18.3513 18.5245 18.0674 18.5245C17.7835 18.5245 17.4996 18.5245 17.217 18.5218C17.0862 18.5218 16.9554 18.5061 16.8298 18.48C16.5315 18.4119 16.3483 18.1137 16.4163 17.8206C16.4634 17.6217 16.6204 17.4595 16.8193 17.4124C16.9449 17.381 17.0757 17.3653 17.2065 17.3653C18.1381 17.3601 19.0748 17.3601 20.0063 17.3653C20.1738 17.3601 20.336 17.381 20.4982 17.4229C20.8541 17.5432 21.0059 17.8729 20.8646 18.2183C20.739 18.5166 20.5401 18.773 20.3412 19.0295L20.3412 19.0295C19.6557 19.9034 18.9701 20.7721 18.2846 21.6356C18.227 21.7036 18.1747 21.7717 18.091 21.8868ZM24.6325 18.7779C24.418 18.8198 24.2871 18.9716 24.1615 19.1338C23.5074 18.5634 22.7852 18.5267 22.0735 18.9506C21.2152 19.453 20.896 20.2694 21.0059 21.2271C21.1106 22.1115 21.4926 22.8389 22.4241 23.1425C23.005 23.3309 23.544 23.2628 24.0203 22.8756C24.1458 22.7761 24.1825 22.7971 24.2714 22.907C24.4441 23.132 24.7424 23.2105 25.0041 23.1111C25.2605 23.0326 25.4385 22.7918 25.4385 22.5197C25.4489 21.4731 25.4542 20.4264 25.4385 19.3798C25.4332 18.9611 25.046 18.6942 24.6325 18.7779ZM22.5288 21.6772C22.3927 21.494 22.3194 21.2742 22.309 21.0439C22.3037 20.306 22.7067 19.8612 23.2824 19.8978C23.5283 19.9031 23.7586 20.0234 23.9051 20.2275C24.1982 20.6253 24.1982 21.2794 23.9051 21.6772C23.8528 21.7452 23.7952 21.8028 23.7324 21.8499C23.3504 22.1324 22.8114 22.0539 22.5288 21.6772ZM29.8867 18.689C28.6307 18.7256 27.7463 19.7304 27.7882 21.0753C27.7672 22.3836 28.8505 23.3727 30.2164 23.2367C31.4671 23.1111 32.2783 22.1743 32.2364 20.8503C32.1946 19.542 31.2212 18.6471 29.8867 18.689ZM29.3267 21.6824C29.1698 21.4678 29.0913 21.2114 29.1017 20.9497C29.1017 20.2956 29.4994 19.8664 30.0646 19.8978C30.3106 19.9031 30.5409 20.0287 30.6874 20.2275C30.9857 20.6253 30.9857 21.2951 30.6822 21.6929C30.6351 21.7452 30.588 21.7975 30.5304 21.8394C30.1536 22.1324 29.6146 22.0592 29.3267 21.6824ZM27.3288 20.8451C27.3282 20.5747 27.3277 20.3043 27.3277 20.0339C27.3277 19.762 27.3282 19.4895 27.3288 19.2167C27.33 18.6707 27.3311 18.124 27.3277 17.5795C27.3277 17.1609 27.0608 16.8992 26.663 16.9044C26.2758 16.9044 26.0193 17.1661 26.0141 17.569C26.0106 17.7328 26.0118 17.8943 26.0129 18.0565C26.0135 18.1379 26.0141 18.2195 26.0141 18.3017V22.4621C26.0141 22.7918 26.213 23.0692 26.4746 23.1372C26.5374 23.1529 26.6055 23.1582 26.6683 23.1582C27.0398 23.1477 27.3329 22.8389 27.3277 22.4674C27.3311 21.9266 27.33 21.3858 27.3288 20.8451Z" fill="#F5F6FA"/>
<defs>
<linearGradient id="paint0_linear" x1="22" y1="0" x2="22" y2="44" gradientUnits="userSpaceOnUse">
<stop stop-color="#3A8BFF"/>
<stop offset="1" stop-color="#035ADA"/>
</linearGradient>
<linearGradient id="paint1_linear" x1="23.4214" y1="23.4485" x2="44.9287" y2="44.9842" gradientUnits="userSpaceOnUse">
<stop stop-opacity="0.1"/>
<stop offset="1" stop-opacity="0"/>
</linearGradient>
</defs>
</svg>
